<svg width="1811" height="346" xmlns="http://www.w3.org/2000/svg" xmlns:xlink="http://www.w3.org/1999/xlink"><defs><path d="M18.97 5.97h1.868v6.718H24V64H0V12.688h3.305V5.971h1.869V0H18.97v5.97z" id="a"/><path d="M13.882 8.764h5.688v7.512h6.703V106h-26V16.276h6.703V8.764h5.688V0h1.218v8.764z" id="b"/><linearGradient x1="37.221%" y1="-5.268%" x2="83.982%" y2="100%" id="c"><stop stop-color="#F8F8F9" offset="0%"/><stop stop-color="#E5E5E5" offset="100%"/></linearGradient><path d="M9.753.687c2.041.819 2.582 3.266 2.582 4.951.287 1 .812 1.834 1.576 2.502l-1.576.935c-.356 3.063-.946 4.847-1.771 5.353-1.237.759-3.701.058-5.69-.89-1.99-.948-2.576-1.983-2.576-4.873C1.652 8.079.691 8.346.691 6.518c0-1.828 1.397-2.182 1.918-1.642.348.36.522-.617.523-2.928C5.84.423 8.046.003 9.753.688z" id="d"/><path d="M0 .972L.91 3H5a27.8 27.8 0 0 0 0 4.691c.128 1.479.483 2.53 1.062 3.156l1.933 2.768H3.23L0 12c.206-1.795.31-3.462.31-5C.31 5.653.206 3.644 0 .972z" id="f"/><path d="M29.196.113C35.399.482 38.982 1.11 39.945 2c.9.832 2.264 2.544 3.055 4.854 1.247 3.64 2.79 8.006 3.046 9.015.418 1.638 1.917 6.508 0 8.297-1.278 1.193-3.125-.068-5.542-3.785L37 11.281l-.633 22.036a1 1 0 0 1-.798.951c-3.805.783-7.5 1.175-11.086 1.175a50.24 50.24 0 0 1-10.73-1.17 1 1 0 0 1-.786-.933L12 11.282 5.494 20.38.162 15.869C4.445 9.498 7.008 5.499 7.851 3.87c.602-1.163 1.043-2.366 2.07-2.647C11.586.43 14.345.023 18.196 0c1.289 2.266 3.104 3.399 5.445 3.399 2.342 0 4.193-1.095 5.554-3.286z" id="h"/><path d="M.504 23.014c2.965 2.347 6.47 3.52 10.517 3.52 4.046 0 7.155-.586 9.327-1.76-2.989-5.079-4.075-8.4-3.258-9.962 1.224-2.343 2.505-3.3 2.505-4.847 0-1.547-1.875-9.21-3.505-9.21h-2.13c.86 2.341.86 3.511 0 3.511-.859 0-2.037-.3-3.534-.903L7.794 1.927C4.559.72 2.94 1.498 2.94 4.267 2.941 8.417 5.506 14 4.727 15.9 4.207 17.17 2.8 19.54.504 23.014z" id="j"/><path id="l" d="M0 30.64l24.724 1.983 8.656-32L9.537 0z"/></defs><g fill="none" fill-rule="evenodd"><g fill="#F6F6F6" fill-rule="nonzero"><path d="M198.703 233.988l4.504 3.42h5.92l1.32 2.054H221V281h-26.19l.003-.054H177v-66.744l5.577-11.651h4.318V188h.99v14.55h1.047l9.77 11.652v19.786zM249.028 209.609V207h4.01v2.609h1.876l8.086 4.999V281h-24v-66.392l8.887-5h1.14zM284 175v2h9v10h3v14h2v9h2v69h-33v-69h2v-9h2v-14h4v-7h5v-3h2v-2h1v-4h1v4z"/></g><path d="M1693 251l-2.007-49.304c-4.702-1.99-9.87-3.016-15.507-3.078v-15.39c-4.666-3.826-10.18-5.33-16.542-4.51v-23.97l-25.05-4.748-24.804 2.29v26.427l-13.86 2.874-4.381 10.871-27.139 2.78v-9.487l-10.091-2.527-12.996 2.527v29.214l-9.443-1.967v-8.122h-9.85v-19.125l-48.295-11.76v-14.292l-16.304-1.877-17.731 1.877v75.081L1693 251z" fill="#FBFBFB" fill-rule="nonzero"/><g fill-rule="nonzero"><path fill="#F6F6F6" d="M612 195.706h122V255H612z"/><path fill="#F1F1F1" d="M608 186.176h130l-4 9.53H612z"/><path fill="#F6F6F6" d="M608 187.235h130L704 165h-59z"/><path fill="#FFF" d="M625 203.118h15v32.824h-15zM652 203.118h15v32.824h-15zM679 203.118h15v32.824h-15zM706 203.118h15v32.824h-15z"/></g><g fill="#F4F5F6" fill-rule="nonzero"><path d="M506.662 259.667C399.157 245 331.5 241.333 303.69 248.667c-41.715 11-51.723 39-89.885 25-38.162-14-115.3-36-157.052-14C28.918 274.333 10 292.333 0 313.667c86.285 4.552 145.935 6.552 178.949 6 57.04-.955 97.457-11 132.677-11 65.796 0 119.588-7.706 161.374-23.117l59.904 12.195-26.242-38.078zM1807.408 269.667C1788.31 260.333 1673.904 219 1612.68 221c-61.222 2-91.713 22.667-129.875 8.667-38.162-14-115.3-36-157.052-14-27.836 14.666-46.754 32.666-56.754 54 86.285 4.552 145.935 6.552 178.949 6 57.04-.955 97.457-11 132.677-11 98.694 0 74.414 3.323 150.45 5 63.618 6.222 89.062 6.222 76.332 0z"/></g><path d="M593.227 256.618c6.729 2.613 65.47 3.232 72.817 6.684 7.348 3.451 47.558-.411 61.144 2.09 13.586 2.501 79.807 16.471 119.227 14.734s102.585 4.227 102.585 0c0-4.226-16.86-24.866-53.151-23.335-36.29 1.532-86.273-25.81-112.392-27.636-26.118-1.826-52.478 13.412-70.8 12.13-18.322-1.28-25.972-7.081-40.152-2.807-14.18 4.274-24.07 13.851-33.261 13.613-9.191-.24-52.746 1.913-46.017 4.527z" fill="#F2F3F3" fill-rule="nonzero"/><path d="M163.567 320c18.316 5.316 107.868-7.146 181.195-7.146 73.326 0 148.461-21.05 157.794-18.398 9.333 2.653-11.902 4.985-5.951 8.419 5.951 3.433 70.175-7.148 123.804-3.242 53.63 3.906 195.717-9.731 221.604-9.731s132.704 2.993 111.129-9.98c-11.413-6.861-94.15-20.638-128.134-20.638-35.984 0-63.251 11.517-102.493 5.566-84.212-12.769-140.242-21.868-200.716-19.464-60.474 2.404-100.22 22.536-129.717 25.415-29.496 2.878-35.684-5.847-78.735 0-17.8 2.417-27.59 13.3-47.671 19.1-16.542 4.78-104.889 18.06-102.11 30.099z" fill="#ECEDEE" fill-rule="nonzero"/><use fill="#F8F8F9" xlink:href="#a" transform="translate(1307.565 189)"/><use fill="#F8F8F9" xlink:href="#b" transform="translate(1270.565 141)"/><path fill="#F2F3F3" d="M1228.565 172h29v57h-29z"/><path fill="#E9E9E9" d="M1257.565 172l7 7.356V236l-7-7.356z"/><path fill="#D8D8D8" d="M1232.565 178h20v1h-20zM1232.565 184h20v1h-20zM1232.565 190h20v1h-20zM1232.565 196h20v1h-20zM1232.565 202h20v1h-20zM1232.565 208h20v1h-20zM1232.565 214h20v1h-20z"/><path fill="#D6E6FF" d="M1224.565 231h31v5h-31z"/><path d="M1342.99 220.694h4.588V262h-13v-41.306h1.53V218h6.882v2.694z" fill="#F8F8F9"/><path d="M836 197.367h6V249h-17v-51.633h2V194h9v3.367z" fill="#F2F3F3"/><g fill-rule="nonzero"><path d="M640.174 235.095c-12.854-3.522-18.046-12.29-15.577-26.301 3.703-21.019 11.996-22.762 20.116-21.89 8.12.871 19.619 9.568 14.845 30.568-3.183 14-9.644 19.875-19.384 17.623z" fill="#00CA82"/><path fill="#605050" d="M641.663 206H643l1 51h-3z"/><path fill="#605050" d="M643.19 212.764L638 209v1.253l5.19 4.582zM642.19 228.764L632.263 220v1.253l9.925 9.582zM643 226.093l6.612-7.093v1.253l-6.612 7.91z"/><path fill="#605050" d="M642 214.685l4.832-3.685v1.253L642 216.755z"/></g><g fill-rule="nonzero"><path d="M604.84 126c9.155.7 14.607 11.877 14.607 37 0 25.123-3.585 64.084-14.608 64.084s-19.637-36.96-17.574-56.96c2.063-20 8.418-44.823 17.574-44.124z" fill="#00D086"/><path fill="#605050" d="M604.376 156l1.5-2v103h-3z"/><path fill="#605050" d="M595.998 159.54v1.71l8.711 7.59V166zM598.235 188.29V190l6.477 4.3v-2.84zM604.746 176l7.504-5.585v1.643l-7.504 6.555z"/></g><g fill="#E7EAED" fill-rule="nonzero"><path d="M590.855 334.673c5.015.262 26.513-7.788 50.145-9.673 12.157-.97 31.576 2.944 35.608 3.663 7.773 1.385-32.024 17.199-40.123 16.774-5.45-.285-35.752-9.187-45.63-10.764z"/><path d="M641.488 342.345c12.363 1.713 19.254 2.075 20.67 1.083 2.126-1.486 12.717-5.238 9.934-6.773-1.856-1.024-9.167-1.407-21.933-1.15l-8.671 6.84z"/></g><path d="M889.54 265.873c4.43 4.49 43.951 9.379 53.543 6.237 1.813 1.872 3.54 3.989 5.184 6.352 6.23.717 11.043.717 14.44 0 10.07-2.13 27.907-.995 43.48-.995h55.98c20.874 0 73.286-5.86 76.612-11.594 3.326-5.734-31.685-11.82-52.518-8.776-20.833 3.042-46.729-2.064-56.093-8.762-9.363-6.698-29.69-9.606-44.946-9.606-15.256 0-19.838-13.213-40.846-8.843-21.008 4.37-18.33 15.341-26.782 22.522-8.452 7.182-32.484 8.976-28.054 13.465z" fill="#F8F8F9" fill-rule="nonzero"/><path d="M1026 274.549c5.672 0 57.94 1.699 80.289 1.699 22.35 0 80.201-12.005 107.352 0 27.15 12.005 142.467 14.56 134.32-1.699-13.023-10.176-6.292-6.85 6.126-6.85.242 0 8.806.506 11.78.44 12.913-.288 32.615 8.117 63.367 8.109 31.361-.008 72.395 1.756 72.764-4.474.368-6.229-41.492-34.449-84.45-31.89-42.957 2.558-50.203 8.893-63.46 8.893-13.259 0-105.71-51.777-153.712-51.777-48.002 0-44.828 21.839-58.652 26.084-13.824 4.246-31.858-3.244-45.505 7.812-13.646 11.057-16.613 22.612-23.932 22.612-7.32 0-46.287 1.788-46.287 21.041z" fill="#E5E5E5" fill-rule="nonzero"/><path d="M1133.105 190.116c-4.147 1.462-4.176 13.049-4.176 21.992 0 8.943-4.19 22.162 5.227 25.417 9.417 3.255 7.98-10.826 7.42-23.534-.562-12.709-4.324-25.337-8.47-23.875z" fill="#00D086" fill-rule="nonzero"/><path d="M1153.354 212.065c2.962.823 2.982 7.34 2.982 12.37 0 5.031 2.994 12.467-3.733 14.298-6.726 1.83-5.7-6.09-5.3-13.238.401-7.149 3.088-14.252 6.05-13.43z" fill="#00B67D" fill-rule="nonzero"/><path fill="#695A57" fill-rule="nonzero" d="M1151 220h1v23h-1z"/><path fill="#887673" fill-rule="nonzero" d="M1135 213h1v38h-1z"/><g transform="translate(1416 170)" fill-rule="nonzero"><path fill="#D8D8D8" d="M19 77h8v29h-8zM5 7h6v4H5z"/><path fill="#D8D8D8" d="M15 100h16v4H15z"/><path d="M22.734 79.434V9" stroke="#D8D8D8" stroke-width="3"/><path d="M16 17a8 8 0 1 0-16 0h16z" fill="#D8D8D8"/><path d="M24.219 9v1.5H21.25V9c0-3.314-2.936-6-6.25-6a6 6 0 0 0-6 6v1.5H6V9a9 9 0 0 1 9-9c4.97 0 9.219 4.03 9.219 9z" fill="#D8D8D8"/><circle fill="#D8D8D8" cx="8" cy="17" r="3"/></g><path fill="#EAEAEA" fill-rule="nonzero" d="M935 226h2v18h-2z"/><g fill-rule="nonzero"><path d="M467.507 65.073l13.246-10.558A2 2 0 0 1 484 56.08V86h-18V68.201a4 4 0 0 1 1.507-3.128zM433.503 94.515l9.873-7.89a1 1 0 0 1 1.624.781V110h-13V97.64a4 4 0 0 1 1.503-3.125z" fill="#ECEDEE"/><path d="M424 111.554V269h82V75.777c-7.807-6.773-15.728-9.122-23.76-7.047-7.29 1.883-10.54 4.875-38.924 26.095-3.527 2.637-9.965 8.213-19.316 16.73z" fill="#ECEDEE"/><path d="M424 135v-2.098C451.45 115.069 470.609 106 482.741 106c12.14 0 19.146 2.193 23.259 7.309v2.196c-3.492-4.79-11.838-7.725-23.259-7.725-11.43 0-31.689 9.645-58.741 27.22zM424 158v-2.322C449.487 141.128 467.75 134 479.837 134c12.052 0 20.56 1.996 26.163 6.435v2.35c-5.123-4.06-14.64-6.946-26.163-6.946-11.487 0-30.708 7.815-55.837 22.161zM506 164.676l-.008 2.24c-3.413-3.62-12.124-6.145-23.647-6.145-11.576 0-31.585 6.552-58.345 19.229v-1.863C451.092 165.302 470.237 159 482.345 159c12.16 0 19.721 1.505 23.655 5.676zM505.958 189.708l.042 2.803c-3.36-4.794-12.646-8.576-24.063-8.576-11.542 0-31.357 6.54-57.937 18.065v-2.56c26.875-11.654 45.944-17.44 57.937-17.44 12.12 0 20.178 2.225 24.021 7.708zM506 217.868v2.454c-2.738-4.62-11.933-8.436-23.323-8.436-11.625 0-31.557 4.012-58.677 11.114v-2.304C451.322 213.541 470.765 210 482.677 210c12.147 0 20.125 2.472 23.323 7.868zM506 242.952v2.135c-.9-1.382-3.363-3.06-6.848-4.168-4.307-1.368-10.167-2.02-16.466-2.02-11.66 0-31.549 3.39-58.686 9.101v-2.29c27.302-5.745 46.795-8.71 58.686-8.71 12.155 0 20.77 2.048 23.314 5.952z" fill="#D8D8D8"/></g><g fill-rule="nonzero"><path stroke="#979797" fill="#D8D8D8" d="M558.5 188.5h-27v1h27z"/><path fill="#ECEDEE" d="M562 182h-34v71h34z"/><path fill="#F1F4F4" d="M576 193.983L562 182v71l14-1.84z"/><path fill="#CECECE" d="M574 197.263L566 191v.737l8 6.263zM574 205.3l-8-6.3v.7l8 6.3zM574 214.3l-8-6.3v.7l8 6.3zM574 222.294L566 217v.706l8 5.294zM574 231.203L566 226v.797l8 5.203zM574 240.333L566 238v.667l8 2.333zM574 247l-8 .333V248l8-.333z"/><path fill="#D8D8D8" d="M558 189h-27v1h27zM558 206h-27v1h27zM558 197h-27v1h27zM558 215h-27v1h27zM558 226h-27v1h27zM558 237h-27v1h27zM558 247h-27v1h27z"/></g><path d="M1085.84 262l34.16-1.28c-11.262-16.988-25.951-27.693-44.067-32.114-18.115-4.421-35.76-4.777-52.933-1.068 18.032 4.562 30.623 9.143 37.774 13.741 7.15 4.599 15.506 11.506 25.066 20.721z" fill="url(#c)" fill-rule="nonzero"/><path fill="#F2F3F3" fill-rule="nonzero" d="M797 180h24v60h-24zM782 202h11v38h-11z"/><path fill="#F4F5F5" fill-rule="nonzero" d="M761 219h17v33h-17z"/><path d="M893 269.147c17.47 1.674 27.282 2.958 29.438 3.853 5.152-4.78 60.249-38.562 95.562-44.648-5.92-3.384-43.467-.427-67.536 8.991-16.045 6.28-35.2 16.88-57.464 31.804z" fill="#ECEDEE" fill-rule="nonzero"/><path d="M893 270c39.115-28.667 75.782-43 110-43s61.885 11.58 83 34.74" stroke="#EAEAEA"/><path d="M894 260c39.115-28.667 75.782-43 110-43s61.885 11.58 83 34.74" stroke="#EAEAEA"/><path d="M974 230.152c22.656-10.768 44.4-16.152 65.236-16.152 34.12 0 61.709 11.667 82.764 35" stroke="#EAEAEA"/><path d="M920 274c22.336-14.066 37.9-23.24 46.691-27.519 29.183-14.204 56.343-21.481 79.301-21.481 34.216 0 58.885 11.62 74.008 34.858" stroke="#EAEAEA"/><path fill="#EAEAEA" fill-rule="nonzero" d="M952 219h2v18h-2zM969 213h2v18h-2zM986 210h2v18h-2zM1003 209h2v18h-2zM1021 210h2v18h-2zM1040 214h2v18h-2zM1056 221h2v18h-2zM1070 230h2v18h-2zM1085 243h2v18h-2zM1032 208h2v18h-2zM1052 207h2v18h-2zM1071 210h2v18h-2zM1087 215h2v18h-2zM1101 223h2v18h-2zM1116 237h2v18h-2z"/><g transform="translate(322 5)" fill="#FFC200" fill-rule="nonzero"><circle cx="36" cy="35" r="14"/><path d="M35 0h2v12h-2zM35 59h2v12h-2zM71.5 34.5v2H59.152v-2zM12.848 34.5v2H.5v-2zM54.92 65.856l-1.34.773-6.174-10.694 1.34-.773zM25.593 15.062l-1.339.773L18.08 5.141l1.34-.773zM66.857 17.078l.773 1.34-10.693 6.173-.773-1.339zM16.063 46.404l.773 1.34-10.693 6.173-.773-1.339z"/><g><path d="M67.63 52.578l-.773 1.34-10.693-6.175.773-1.339zM16.836 23.252l-.773 1.34L5.37 18.416l.773-1.339z"/></g><g><path d="M53.58 4.368l1.34.773-6.174 10.694-1.34-.773zM24.255 55.162l1.339.773L19.42 66.63l-1.34-.773z"/></g></g><path d="M943 163.47c.768.39 4.503 2.527 5 3.53.852-.869 4.057-3.53 5-3.53-1.37-.603-3.018-.228-4.942 1.125-1.713-1.641-3.4-2.016-5.058-1.124zM966 150.353c.537.292 3.152 1.895 3.5 2.647.596-.651 2.84-2.647 3.5-2.647-.96-.453-2.113-.172-3.46.843-1.199-1.23-2.379-1.512-3.54-.843z" fill="#D8D8D8" fill-rule="nonzero"/><g transform="translate(590 290)"><rect fill="#4873EB" fill-rule="nonzero" x="12.515" width="46.485" height="44.744" rx="2"/><rect fill="#5E91F5" fill-rule="nonzero" width="46.485" height="44.744" rx="2"/><path d="M28.296 15.6a6.185 6.185 0 0 0-1.962-1.579c-.748-.38-1.703-.57-2.866-.57-1.37 0-2.424.277-3.161.83-.737.554-1.106 1.309-1.106 2.264 0 1.324.924 2.29 2.772 2.898l4.797 1.498c3.592 1.129 5.388 3.354 5.388 6.675 0 1.454-.363 2.724-1.09 3.81-.727 1.085-1.76 1.92-3.1 2.507-1.338.586-2.922.879-4.749.879-2.035 0-3.852-.364-5.45-1.09-1.6-.728-2.814-1.754-3.644-3.078-.083-.217-.125-.347-.125-.39 0-.174.104-.337.311-.49l1.963-1.432c.228-.13.405-.195.53-.195.165 0 .3.076.404.228.81 1.107 1.625 1.888 2.445 2.344.82.456 1.915.684 3.286.684 1.495 0 2.668-.26 3.52-.781.85-.521 1.276-1.314 1.276-2.377 0-.695-.213-1.281-.638-1.759-.426-.477-1.179-.9-2.258-1.27l-4.703-1.498c-1.724-.542-3.042-1.405-3.956-2.588-.913-1.183-1.37-2.513-1.37-3.989 0-1.39.353-2.621 1.059-3.696.706-1.074 1.708-1.915 3.005-2.523 1.298-.608 2.798-.912 4.5-.912 1.641 0 3.152.298 4.533.895 1.38.597 2.476 1.417 3.285 2.459.125.174.187.315.187.423 0 .109-.062.217-.187.326l-2.21 1.726a.404.404 0 0 1-.25.097c-.104 0-.25-.108-.436-.325z" fill="#FFF" opacity=".85"/></g><g transform="matrix(-1 0 0 1 643 255)" fill-rule="nonzero"><rect fill="#59ABEF" x="9.758" width="36.242" height="35" rx="2"/><rect fill="#90CAF9" width="36.242" height="35" rx="2"/></g><path d="M614.033 283a.427.427 0 0 1-.334-.132.5.5 0 0 1-.119-.349v-16.95c0-.145.028-.249.084-.313.055-.064.155-.096.298-.096h4.033c.16 0 .275.024.346.072.072.048.124.136.155.265l4.2 11.348c.049.128.104.192.168.192.064 0 .12-.072.167-.216l4.081-11.204c.08-.305.239-.457.477-.457h4.177c.223 0 .334.128.334.385v16.95c0 .176-.04.305-.12.385-.079.08-.214.12-.405.12h-2.554c-.159 0-.274-.032-.346-.096-.071-.064-.107-.176-.107-.337v-12.574c0-.097-.024-.145-.072-.145-.016 0-.055.057-.12.169l-4.534 12.622c-.063.24-.222.361-.477.361h-1.694c-.255 0-.43-.12-.525-.36l-4.487-12.479c-.016-.112-.056-.168-.12-.168-.047 0-.071.064-.071.192v12.43c0 .145-.028.245-.084.3-.055.057-.163.085-.322.085h-2.029z" fill="#FFF" opacity=".65"/><g fill-rule="nonzero"><path fill="#FFD600" d="M1621 305.986L1533.406 326 1439 305.986 1519.59 292z"/><path fill="#FFF" opacity=".9" d="M1498.378 303.51l-7.292 2.731 15.182 2.602 6.802-3.37z"/><path fill="#FFF" d="M1506.697 297.853l-10.404 4.281 22.224 2.319 9.651-5.107zM1490.378 303.51l-7.292 2.731 15.182 2.602 6.802-3.37z"/><path d="M1536 266.217c2.145.887 3.218 1.754 3.218 2.603 0 .849 1.373 1.575 4.12 2.18 2.49-1.242 3.71-1.888 3.66-1.938-2.678-2.756-3.66-4.583-3.66-5.609 0-1.107-2.446-.186-7.338 2.764zM1519.107 306.714c-3.047.823-5.12.823-6.217 0-1.646-1.236-1.412-2.9 0-2.9s2.82.451 3.13.091c-.869-.46-2.148-.43-1.733-.956.276-.35.96-.496 2.051-.437 1.524.431 2.568.647 3.13.647.563 0 .442 1.185-.361 3.555z" fill="#F26C29"/><path d="M1543 287c-3.51 7.007-5.919 11.036-7.223 12.086-1.304 1.05-5.303 1.636-11.996 1.76-.265-2.647-.279-4.384-.041-5.212 2.288-.417 6.465.206 8.07-1.335 1.605-1.54 4.806-10.49 5.897-13.486.728-1.998 2.492.065 5.293 6.187z" fill="#136EC3"/><path d="M1544 299c-12.667 5.555-19 9.653-19 12.294 0 3.96 3.281 5.254 6 5.716 2.719.462 30.355-3.83 30.355-3.83s-4.211-2.022-4.211-3.649c0-1.626 5.173-1.05 4.211-11.575-.641-7.017-6.426-6.669-17.355 1.044z" fill="#D3D5DB"/><path d="M1560.79 301.993c.292-.58 1.45-.603 3.474-.066 3.036.805 6.12 1.003 6.091 2.39-.027 1.387-2.512 2.574-4.744 1.747-2.233-.827-4.031.364-4.487-.89-.305-.836-.416-1.896-.335-3.181z" fill="#373737"/><path d="M1542.894 268.01c1.54-.15 2.714-1.316 3.75-.917 6.621 2.548 9.625 9.786 11.484 15.553 3.052 9.471 3.721 16.358 3.721 17.522 0 1.163-2.768-1.05-9.97 1.786-2.07.815-13.558 1.3-13.023 0 1.652-4.02 2.337-10.012 1.487-12.218-1.618-4.205-2.034-5.167-4-7.09-1.628 5.016-1.937 12.77-3.59 15.816-1.653 3.047-9.577 9.65-12.577 9.65-1.139-.595-1.767-2.648-1.884-6.158 5.16-3.232 8.045-6.02 8.657-8.364.919-3.517 2.281-17.326 3.508-20.776 1.024-2.88 4.931-4.716 5.886-4.805 2.18-.201 5.01.15 6.55 0z" fill="#0084FF"/><path d="M1531.901 252.688c-1.206 2.065-1.56 4.556-1.059 7.473-.33 1.61-.517 1.484-.647 2.04-.13.555 1.233.431 1.233.46 0 .028 1.196 4.813 3.288 4.934 2.093.122 4.737-1.96 5.113-2.543.375-.583.928-9.534-1.543-11.052-1.648-1.012-3.776-1.45-6.385-1.312z" fill="#F26C29"/><path d="M1561.758 308.942c2.696-1.775 4.443-1.568 5.242.62 1.198 3.285 3.291 4.709 4.333 5.642 1.041.934-3.324 2-5.541 0-2.217-2-4.792-.81-4.792-2.436 0-1.083.253-2.359.758-3.826z" fill="#4A4A4A"/><path d="M1561.78 308.364c.904.405 1.51 1.399 1.102 2.326-.518 1.178-.813 2.646-1.604 3.174-1.409.941-27.982 3.057-31.242 3.057-3.26 0-6.07-3.324-4.665-6.937 1.405-3.613 13.159-2.933 14.994-2.933 1.836 0 13.958-.32 21.415 1.313z" fill="#EBECF0"/><path d="M1531.057 252.911c1.167-2.375 2.932-3.892 8.488-3.668 5.556.224 7.397 7.484 7.73 7.892.334.407 4.323 2.174 3.54 5.272-.781 3.099-6.65 4.48-9.066 4.777-2.416.296-5.11.232-4.75-4.084.087-1.04.354-2.075-.39-3.18-.88-1.305-3.611-2.81-4.743-4.488-.56-.83-1.976-.145-.809-2.52z" fill="#0F2B50"/><path d="M1524.453 299.342c-3.308.667-5.134.747-5.48.239-.517-.761-.792-1.828 0-2.3.793-.471 2.292.047 2.564-.238-.761-.365-1.541-.338-1.178-.755.242-.278.798-.37 1.668-.278 1.335.342 2.25.513 2.742.513.493 0 .388.94-.316 2.82z" fill="#F26C29"/></g><path fill="#EAEAEA" fill-rule="nonzero" d="M918 234h2v18h-2z"/><path fill="#F4F5F6" fill-rule="nonzero" d="M1551 240l-3.215-32.428h-4.448l-1.658-13.656h-3.929L1534.37 173h-6.108l-1.807 20.916h-4.934l-2.124 13.656h-4.683l-2.714 29.56z"/><g fill="#D8D8D8" fill-rule="nonzero"><path d="M732 305h23v2h-23zM734.884 288h17.221l.895 5h-19z"/><path d="M734 293h2l-7.53 35.934h-2zM753 293h-2l7.53 35.934h2z"/></g><path fill="#F6F6F6" fill-rule="nonzero" d="M231.267 237H247v44h-20v-44"/><path d="M258.837 298v-26.25c-5.097 3.508-11.395 3.508-18.895 0-11.25-5.264-15.12-19.043 0-21.398-1.324-3.89 4.327-9.655 13.528-9.655 5.367-3.535 20.268-7.247 31.822 2.814 5.84 1.156 23.26 8.632 17.588 20.938-5.672 12.306-21.05 14.67-31.178 13.488v16.27L258.837 298z" fill="#ECEDEE" fill-rule="nonzero"/><g fill-rule="nonzero" stroke="#D4D4D4"><path d="M334.29 264.113c-1.969 2.469-6.422 3.094-11.455 1.186-5.032-1.908-5.018-4.714-6.817-6.09-1.8-1.378-5.972-.29-7.806-.034-1.834.256-3-1.454-3.092-3.754-.092-2.3-1.245-4.492-3.54-5.023-2.294-.531-4.61-.823-5.536-3.173-.926-2.35-.13-4.507-.851-6.053-.721-1.545-1.92-2.842-5.763-3.924-1.46-.454-4.134-4.065-.43-8.71 3.703-4.647 10.663-2.548 12.766 1.537 2.104 4.085 3.663 1.966 5.222 1.153 1.56-.813 3.905-2.99 6.91 3.72 3.004 6.71 4.697 5.075 7.12 5.448 2.421.373 6.855.074 10.15 6.231 3.293 6.157 5.09 15.017 3.122 17.486zM335.532 262.648c-23.391-20.83-39.062-32.025-47.012-33.584M301.584 235.566c-4.246.18-7.618 1.04-10.116 2.58M314.6 244.621c-8.783 1.062-14.493 2.562-17.13 4.5"/><path d="M325.727 253.77c-2.607-.01-4.84.415-6.699 1.276-1.905.883-3.938 1.974-5.74 3.393"/></g><g fill-rule="nonzero"><path stroke="#979797" fill="#D8D8D8" d="M358.5 158.5h50v1h-50z"/><path stroke="#ECEDEE" fill="#ECEDEE" d="M353.5 147.5h60v126h-60z"/><path fill="#F1F4F4" d="M327 168.435L353 147v127l-26-3.29z"/><path fill="#CECECE" d="M331 173.737L346 163v1.263L331 175zM331 189.7l15-11.7v1.3L331 191zM331 204.7l15-11.7v1.3L331 206zM331 218.706L346 209v1.294L331 220zM331 234.672L346 226v1.328L331 236zM331 250.667L346 246v1.333L331 252zM331 262l15 .667V264l-15-.667z"/><path fill="#D8D8D8" d="M359 159h49v1h-49zM359 191h49v1h-49zM359 174h49v1h-49zM359 207h49v1h-49zM359 226h49v1h-49zM359 245h49v1h-49zM359 264h49v1h-49z"/></g><g transform="translate(405 212)"><path d="M12.345 6.226c-.728 0-1.51 1.864-1.775 3.802-.264 1.938-.122 4.872 3.184 6.39 2.204 1.012 3.262.864 3.173-.444l.984-7.884c-3.225-1.243-5.08-1.864-5.566-1.864z" fill="#171052" fill-rule="nonzero"/><g transform="translate(13 6)"><mask id="e" fill="#fff"><use xlink:href="#d"/></mask><use fill="#FFC456" fill-rule="nonzero" xlink:href="#d"/><path d="M13.664 8.084c-.866.305-1.959.438-1.959.643 0 .138.21.25.63.34l1.577-.935a.244.244 0 0 0-.248-.048z" fill="#F5A623" fill-rule="nonzero" mask="url(#e)"/></g><path fill="#298C42" fill-rule="nonzero" d="M14.518 47.012l.568 2h11.873l.282-2z"/><path d="M15.662 10.89c.08.535.244.963.49 1.284.195.255.84.683.899.39.156-.784 0-1.675.272-2.04.526-.706 3.899-1.103 5.262-3.313 1.477-.356 1.71 1.06 1.873.718.025-.054.275-.404.275-.531 0-.405.296-1.277-.275-2.416-.76-1.514-2.714-2.717-5.306-2.891-2.592-.174-4.03-.277-5.988 1.868-1.306 1.43-.473 3.74 2.498 6.93z" fill="#1B1253" fill-rule="nonzero"/><circle fill="#1B1253" fill-rule="nonzero" cx="13" cy="4" r="4"/><g transform="translate(15 13)"><mask id="g" fill="#fff"><use xlink:href="#f"/></mask><use fill="#FFC456" fill-rule="nonzero" xlink:href="#f"/><path d="M4.94 7.365L2.91 6c-.553-.035-.995.078-1.323.34-.494.395 1.08 1.42 2.217 2.024.758.402 1.476.582 2.157.54L4.94 7.365z" fill="#F5A623" fill-rule="nonzero" mask="url(#g)"/></g><path d="M1.163 120c23.57 1.029 39.27 1.543 47.105 1.543 11.75 0 6.951 5.727-2.35 5.918-11.64.238-30.425-4.341-39.534-5.06-6.072-.478-7.813-1.279-5.221-2.401z" fill="#E7EAED" fill-rule="nonzero"/><path d="M10.834 36.646c-2.028-5.423-2.809-8.802-2.342-10.137.454-1.297 1.614-2.127 2.707-2.763.73-.425 4.113-.491 5.172-.425.75.425 3.665 2.65 4.688 2.361.682-.192.568-.979-.343-2.36l1.887.36a1 1 0 0 1 .563.321c.84.954 1.386 1.628 1.636 2.02 2.285 3.576 3.36 5.922 3.859 6.76.906 1.517.55 4.57-2.305 5.521-.739.246-.827.966-.794 1.94.037 1.127.429 3.479 1.175 7.055h-12.16L11.93 36.812l-.181-.582-.914.416z" fill="#EB4136" fill-rule="nonzero"/><path d="M13.87 16.357l1.191.636c.809-1.373.946-2.15.411-2.33-.534-.182-1.272-.573-2.212-1.174l.61 2.868z" fill="#1B1253" fill-rule="nonzero"/><g transform="rotate(13 -105.203 130.102)"><rect fill="#4873EB" fill-rule="nonzero" x="6.125" width="21" height="20.192" rx="2"/><rect fill="#5E91F5" fill-rule="nonzero" width="21" height="20.192" rx="2"/><text opacity=".85" font-family="LibreFranklin-SemiBold, Libre Franklin" font-size="18" font-weight="500" fill="#FFF"><tspan x="4.375" y="18.5">C</tspan></text></g><path d="M11.224 35.93c5.322 6.734 8.252 10.31 8.791 10.727.539.417 1.623.417 3.254 0l1.867-2.04-7.988-10.82-5.924 2.134z" fill="#FFC456" fill-rule="nonzero"/><path d="M22.804 42.442c-2.282 1.963-3.13 3.413-2.541 4.35.406.646 3.485 1.041 9.447 1.144 1.791.03 5.153-.052 10.084-.248 2.484.457 4.014.716 4.59.777.575.06 1.298-.278 2.169-1.016 1.592-1.567 1.682-2.425.27-2.574-1.51-.159-2.192.863-3.343.423-.462-.177 1.479-1.429.165-1.567-1.447-.152-2.897 1.07-4.783.872-1.887-.198-10.774-2.161-12.902-2.161h-3.156z" fill="#FFC456" fill-rule="nonzero"/><path d="M18.081 49c-2.054 1.426-3.322 3.133-3.803 5.12-.722 2.981-3.502 2.776-1.79 7.987 1.142 3.473-1.86 19.118-9.007 46.934l5.982 1.12c6.646-15.979 10.849-26.748 12.606-32.308 3.784-11.969 5.921-18.995 6.146-20.865.313-2.605-.074-5.268-1.162-7.988H18.08z" fill="#2B9F4A" fill-rule="nonzero"/><path d="M15.201 49c-2.054 1.426-3.322 3.133-3.803 5.12-.722 2.981 0 6.72 1.712 11.93 1.141 3.473 7.185 18.447 18.132 44.921l5.225-1.24L27.1 62.802c-.244-3.063-.57-5.664-.98-7.802a24.567 24.567 0 0 0-1.948-6h-8.971z" fill="#34A853" fill-rule="nonzero"/><path d="M3.52 108.884c-1.247 4.153-1.947 6.604-2.098 7.353-.227 1.124-.894 3.73-.894 4.279 0 .548 4.973.827 6.037.827h8.405a1 1 0 0 0 .91-.584c.487-1.063-.093-1.815-1.74-2.254-2.9-.774-6.855-.755-7.221-1.56-.348-.766-.335-2.024.818-3.88.375-.603.91-1.58 1.606-2.93l-5.822-1.251zM31.256 110.938c1.542 4.376 2.472 6.912 2.79 7.607.476 1.042.775 3.943 2.385 3.943 1.61 0 6.675-4.218 7.536-4.843.564-.41 1.42-1.817 2.567-4.223a.982.982 0 0 0-1.628-1.066c-.805.928-5.326 3.08-6.096 2.644-.73-.414-1.225-1.577-1.52-2.733-.18-.71-.467-1.581-.859-2.615l-5.175 1.286z" fill="#386BC6" fill-rule="nonzero"/></g><g fill-rule="nonzero"><path d="M220.346 275.272c13 0 16.346-13.584 16.346-28.772 0-15.188-4.752-27.5-17.752-27.5S204 232.812 204 248s3.346 27.272 16.346 27.272z" fill="#FFA200"/><path fill="#514D4D" d="M219 234h2v65.24l-2 .434zM221 260.467l8.414-5.467.83 1.311-9.244 6.983z"/><path fill="#514D4D" d="M220.243 256.467L211.83 251l-.829 1.311 9.243 6.983zM220.024 244.173l-6.063-3.62v1.168l6.063 5.279zM221 247.467l8.414-5.467.83 1.311-9.244 6.983z"/></g><g fill-rule="nonzero"><path d="M866 250c10.339 0 13-10.622 13-22.497 0-11.876-3.779-21.503-14.118-21.503S853 216.8 853 228.675c0 11.876 2.661 21.325 13 21.325z" fill="#FFA200"/><path fill="#514D4D" d="M865 218h2v52h-2zM867 238.614l6.372-4.614.628 1.107-7 5.893z"/><path fill="#514D4D" d="M866 235.614L859.628 231l-.628 1.107 7 5.893zM866 225.807L861 223v.906l5 4.094zM867 228.614l6.372-4.614.628 1.107-7 5.893z"/></g><ellipse fill="#E7EAED" fill-rule="nonzero" cx="802" cy="328" rx="20" ry="4"/><g transform="translate(771 202)"><path fill="#EAEAEA" fill-rule="nonzero" d="M17 66h2v18h-2zM33 56h2v18h-2z"/><circle fill="#CE4D0D" fill-rule="nonzero" cx="31" cy="10" r="2"/><circle fill="#CE4D0D" fill-rule="nonzero" cx="20" cy="10" r="2"/><path d="M22.05 21.286c.05-.224.097-.474.143-.75.136-.819.225-1.647.264-2.487-1.313-1.14-2.365-3.063-2.658-5.473-.101-.83-.101-2.272 0-4.324C17.837 4.751 19.489 3 24.755 3c7.9 0 5.904 8.259 5.904 9.576 0 2.534-1.054 4.403-2.434 5.498.063 1.225.136 2.09.221 2.598.05.298.123.593.22.885.599.214 1.31.322 2.133.322.804 1.638.804 3.569 0 5.793h-10c-1.27-2.25-1.603-4.25-1-6a7 7 0 0 0 2.252-.386z" fill="#F26C29" fill-rule="nonzero"/><path d="M19.108 120c.208 1.303-.07 2.269-.834 2.898-1.146.943-7.274 1.016-7.274 3.004 0 1.989 8.453.79 9.465.79 1.013 0 3.275.747 3.275-.79 0-1.024-.247-2.992-.74-5.902h-3.892zM40.921 119c.07 1.1.62 2.022 1.65 2.765 2.59 1.868 6.896 1.149 6.896 3.137 0 1.989-8.99.775-10.002.775-1.013 0-3.275.747-3.275-.79 0-.666.076-1.924.076-3.39 0-.524-.088-1.356-.266-2.497h4.921z" fill="#2E4857" fill-rule="nonzero"/><path fill="#B54710" fill-rule="nonzero" d="M18 116h5v4h-4zM35 113h5l1 6h-5z"/><path d="M15 55c.123 38.873.997 59.79 2.621 62.75.84 1.531 2.41 1.531 3.308 1.458 1.141-.093 2.317-.464 2.878-1.996.65-1.773.4-8.928.907-18.793.272-5.3.58-17.126.923-35.48h2.24c3.087 33.232 4.996 50.76 5.726 52.583 1.095 2.736 3.328 2.638 4.77 2.638 1.443 0 3.21-1.258 3.21-3.303 0-1.363-1.08-21.315-3.239-59.857H15z" fill="#D35312" fill-rule="nonzero"/><path d="M23.879 6.61c3.013 1.858 5.42 2.788 7.219 2.788 1.173-1.686 1.054-6.605.71-7.568C31.103 1.285 29.667 0 28.05 0c-2.11 0-2.11.632-2.784.955C23.327 1.023 19-.502 19 2.793c0 3.296.49 6.68 1.248 6.605.505-.05 1.716-.98 3.631-2.789z" fill="#0044B0" fill-rule="nonzero"/><g transform="translate(2 21)"><mask id="i" fill="#fff"><use xlink:href="#h"/></mask><use fill="#FFC52E" fill-rule="nonzero" xlink:href="#h"/><path fill="#F69C1F" fill-rule="nonzero" mask="url(#i)" d="M28 20.98l8.344 5.99L39 23.977l-8.144-5.731zM38.406 15.21c1.007-.046 1.872.267 2.594.94.722.673 1.083 1.161 1.083 1.464l-2.97-.693-.707-1.712z"/></g><path fill="#00B67D" fill-rule="nonzero" d="M16.859 31l14.127 7.512-9.859 18.542L7 49.542z"/><path d="M31.969 35.92c-.48-1.28-1.157-1.92-2.032-1.92H28l1.937 1.92v1.095l1.52 1.568.512-2.664z" fill="#F26C29" fill-rule="nonzero"/><rect fill="#FFF" fill-rule="nonzero" x="24" y="30" width="5" height="7" rx=".5"/><path d="M29.866 36.385c-.275-.44-.519-.695-.734-.765-1.992-.647-3.597-.627-4.244-.805-1.143-.315-.633-.983-1.04-.776-1.21.618-1.424 4.348 1.372 5.196 1.864.565 3.466.947 4.808 1.146l.975-3.317-1.137-.679z" fill="#F26C29" fill-rule="nonzero"/><rect fill="#FFC52E" fill-rule="nonzero" transform="rotate(-53 10.891 43.415)" x="7.391" y="32.415" width="7" height="22" rx="3.5"/><path d="M29 41.842l2.163-6.657L46.58 39.99a3.458 3.458 0 0 1 2.26 4.37l-.013.04a3.5 3.5 0 0 1-4.37 2.26L29 41.842z" fill="#FFC52E" fill-rule="nonzero"/><path fill="#FFF" fill-rule="nonzero" d="M31.279 35l.945.325-2.279 6.619-.945-.326zM20 21.038L21.007 21c.69 1.588 2.628 2.538 4.784 2.538 2.11 0 4.157-.794 4.881-2.334.22-.037.402-.059.55-.065.067-.003.212.005.433.024-.896 1.909-3.382 3.375-5.864 3.375-2.537 0-4.935-1.528-5.791-3.5z"/><circle fill="#6D6363" fill-rule="nonzero" cx="25.5" cy="31.5" r="1"/></g><g fill-rule="nonzero"><path d="M1279.909 101.453a1.5 1.5 0 0 0-1.409 1.498v180.211a1.5 1.5 0 0 0 1.377 1.495l130.58 10.728a1.5 1.5 0 0 0 1.622-1.495V95a1.5 1.5 0 0 0-1.591-1.497l-130.58 7.95z" stroke="#D8D8D8" fill="#FFF"/><path d="M1296.242 171.678l94.405 2.525a1 1 0 0 1 .973 1v6.896a1 1 0 0 1-1.026 1l-94.406-2.526a1 1 0 0 1-.973-1v-6.895a1 1 0 0 1 1.027-1zM1295.991 147.41l74.211-.647a1 1 0 0 1 1.009 1v6.897a1 1 0 0 1-.991 1l-74.211.646a1 1 0 0 1-1.009-1v-6.896a1 1 0 0 1 .991-1zM1296.273 201.42l94.405 5.464a1 1 0 0 1 .942.998v6.893a1 1 0 0 1-1.058.999l-94.405-5.464a1 1 0 0 1-.942-.998v-6.893a1 1 0 0 1 1.058-.999zM1296.29 231.15l94.406 7.168a1 1 0 0 1 .924.997v6.15a1 1 0 0 1-1.075.997l-94.406-7.169a1 1 0 0 1-.924-.997v-6.15a1 1 0 0 1 1.076-.996z" fill="#E6E7EA"/></g><g fill-rule="nonzero"><path d="M254.691 317.28c2.075.072 4.255-2.001 5.394-5.523 1.139-3.522-.29-4.78-.235-6.352.055-1.573 2.352-3.288 3.25-4.143.897-.854.518-2.242-.61-3.328-1.127-1.085-1.756-2.684-1.065-4.137.69-1.452 1.512-2.808.708-4.358-.803-1.55-2.23-2.101-2.712-3.18-.481-1.078-.637-2.296.423-4.817.38-.977-.33-4.019-4.236-4.155-3.905-.137-5.752 4.49-4.562 7.445 1.19 2.954-.536 2.823-1.6 3.281-1.065.458-3.15.717-1.006 5.33 2.144 4.615.607 4.774-.218 6.223-.824 1.449-2.83 3.659-1.088 8.177 1.743 4.518 5.482 9.464 7.557 9.536z" fill="#FFC05A"/><path d="M253.628 316.987c1.09-.98 1.225-3.053.15-5.318-1.076-2.265-2.393-2.175-3.103-2.965-.711-.789-.349-2.745-.294-3.599.055-.854-.79-1.34-1.873-1.315-1.083.025-2.154-.442-2.485-1.484-.33-1.043-.55-2.102-1.687-2.46-1.136-.358-2.12.073-2.872-.214-.751-.287-1.403-.802-2.048-2.542-.265-.66-2.056-1.787-4.105.058-2.05 1.846-.817 4.994 1.176 5.843 1.993.85 1.054 1.631.728 2.375-.326.743-1.265 1.89 1.992 3.077 3.258 1.187 2.55 2.017 2.812 3.123.262 1.106.28 3.16 3.288 4.497 3.008 1.338 7.232 1.905 8.321.924z" fill="#00C37E"/><path d="M250.613 317.756L322 317c-4.656-.53-6.984-1.318-6.984-2.367 0-1.573-1.301-4.942-5.099-4.942-2.532 0-4.158.744-4.878 2.232-.2-3.147-1.756-4.72-4.665-4.72-4.364 0-3.506.257-5.394 2.488 0-2.416-.87-3.6-2.61-3.552 1.635-1.8 1.635-3.275 0-4.426-1.634-1.15-3.49-.822-5.565.985-2.606-4.589-5.694-6.883-9.263-6.883-3.57 0-6.272 1.39-8.108 4.173-.343-4.458-2.045-7.039-5.104-7.741-4.588-1.054-10.492 1.054-13.717 10.45-2.15 6.266-2.15 11.285 0 15.06z" fill="#00D086"/></g><ellipse fill="#E7EAED" fill-rule="nonzero" transform="rotate(-5 1331.774 324.684)" cx="1331.774" cy="324.684" rx="19.5" ry="4"/><g fill-rule="nonzero"><path fill="#DADCDF" d="M1359.052 255l-5.3 8.48 74.949 51.365 5.299-8.48z"/><path d="M1313.143 285.824c-.342 2.695-.071 7.165.81 13.41.883 6.244 1.704 12.166 2.464 17.766H1320v-33l-6.857 1.824z" fill="#F26C29"/><path d="M1348.517 238.065c.397 2.442 1.034 4.433 1.911 5.971 1.316 2.308 11.065 9.29 14.74 11.244 2.45 1.302 3.909 3.399 4.377 6.289-.33.669-1.292.58-2.884-.266-2.388-1.27-2-4.007-3.55-4.83-1.548-.824-11.614-4.787-13.828-6.658-1.476-1.248-3.71-4.565-6.703-9.952l5.937-1.798z" fill="#E15F1E"/><path d="M1346.365 243.579c.171 1.752.362 2.979.57 3.68.567 1.908 1.591 4.294 2.024 5.733 2.091 6.959 4.69 6.582 5.94 8.008 2.527 2.882 3.306 1.626 3.67 2.907.365 1.28-2.123-.27-2.826.477-.703.746 3.625 1.661 4.793.273 1.17-1.388.932 2.272-1.722 2.749-2.653.477-3.895.209-4.982-.753-1.087-.962-1.575-2.187-2.073-4.06-.296-1.116-5.06-2.95-8.637-13.113-.287-.817-.595-2.203-.923-4.16l4.166-1.741zM1326 281c.564 6.1 1.873 12.69 3.926 19.77s3.742 12.824 5.066 17.23H1339l-5.388-37H1326z" fill="#F26C29"/><path d="M1342.095 229.24c4.35 6.038 7.098 9.636 8.244 10.795-.966 1.279-2.356 2.508-4.17 3.689-6.351-5.598-9.595-8.95-9.73-10.056-.136-1.105 1.75-2.581 5.656-4.428z" fill="#0771D4"/><path d="M1355.967 211c-.207 3.333-.65 5.333-1.327 6-1.017 1-.08 4.17-1.957 3.34-1.877-.828-3.192 1.66-5.16 2.66-1.967 1-3.218-5-5.081-4-1.242.667-2.113 1.851-2.613 3.553l-5.526-2.212c3.684-3.806 5.526-6.253 5.526-7.341 0-1.633 1.789-8 5.634-7 2.564.667 6.065 2.333 10.504 5z" fill="#F26C29"/><path d="M1354.358 205.504c2.608 4.506 2.647 7.297.117 8.373-3.794 1.613-7.99 2.13-7.428.164.562-1.966-1.3-5.539-2.693-2.446-1.394 3.093.927 4.75-5.015 5.692-5.943.94-10.073.258-8.209-5.95 1.865-6.208 10.262-7.506 8.93-2.708-.889 3.198.973 2.049 5.583-3.448l8.715.323z" fill="#0048BE"/><path d="M1338.917 210.186c-2.563-4.758 3.085-9.546 7.457-10.238 4.371-.692 7.54 1.752 8.233 6.124-2.374 1.861-7.636 4.36-11.797 4.71-1.505.126-3.517 0-3.893-.596z" fill="#F5A623"/><path d="M1338.259 220.283c3.178 1.377 4.328-.997 5.69 2.4 1.36 3.396 1.854 18.848 3.773 22.1-1.361 1.092-3.375 2.173-6.042 3.242-1.66-4.326-2.792-7.57-3.396-9.733-.605-2.163-.953-2.999-1.045-2.506-.276.998-1.465 1.96-3.567 2.884-2.153.948-4.413 5.585-4.41 8.214.007 4.66 3.418 16.13 10.234 34.407-7.676 4.475-14.338 6.708-19.987 6.7-5.65-.008-9.341-1.454-11.076-4.34.612-2.912.916-5.998.912-9.257-.005-3.677-2.376-15.277 0-23.394 1.083-3.701 3.184-5.593 4.548-6.899 5.507-5.27 4.045-2.638 5.543-9.122 1.498-6.484 11.968-15.074 14.209-16.152 2.241-1.078 2.732.64 4.614 1.456z" fill="#0084FF"/><path d="M1338.946 317.636c.15 1.632.86 2.448 2.133 2.448 1.908 0 3.559.641 4.981 1.59 1.422.949 2.822 2.09 1.241 2.09-1.58 0-4.34-.016-6.845-.016s-5.388 1.165-5.388-1.515c0-2.68.48-2.957 0-4.597-.32-1.093-.676-2.305-1.068-3.636h4.409l.537 3.636zM1319.872 318.705c0 1.243.668 2.041 2.004 2.393 2.005.528 2.837.528 4.227 1.473 1.39.945 2.759 2.082 1.214 2.082-1.546 0-3.6.096-6.05.096-2.449 0-5.267 1.16-5.267-1.51s1.076-2.982.606-4.616c-.314-1.09-.516-2.297-.606-3.623h3.798l.074 3.705z" fill="#F26C29"/></g><g transform="translate(1157 110)"><path d="M111.565 21.297c.976-1.807 2.092-2.805 3.35-2.996 1.885-.286 4.253-.502 4.253 0s-2.526.996-3.294 1.996c-.768 1-.892 1 0 1s1.143-1 1.143 0-1.346 1.885-2.103 1.885c-.504 0-1.62.372-3.349 1.115v-3z" fill="#F26C29" fill-rule="nonzero"/><path d="M87.58 21.533c-.767-.118-1.15-1.398-1.15-3.842 0-2.443-1.056-3.673-3.167-3.691l-.703 1.93v2.79c0 1.996-2.11 3.996-2.943 3.996-.832 0 8.587 4.256 9.796 4.164.806-.062.195-1.844-1.832-5.347z" fill="#D5591A" fill-rule="nonzero"/><path d="M58.242 102.394c8.56-13.32 14.46-22.24 17.704-26.761 3.243-4.521 6.899-12.17 10.966-22.949L74.204 44c-.99 2.792-1.317 5.136-.983 7.03.502 2.842-2.465 19.264-4.786 22.66-5 7.31-10.667 24.001-13.138 25.86.568.36 1.55 1.308 2.945 2.844z" fill="#0F2B50" fill-rule="nonzero"/><path d="M89.835 21c4.52 1.664 8.215 2.665 11.088 3.003 2.874.338 6.607-.663 11.2-3.003l2.171 3.003c-5.674 3.849-10.13 5.773-13.37 5.773-3.24 0-7.36-1.255-12.359-3.766l1.27-5.01z" fill="#EA9400" fill-rule="nonzero"/><path d="M90.221 47.379v31.637c0 7.026-3.204 20.465-3.204 25.984-2.11.366-3.522.366-4.237 0-.122-7.725-.184-13.15-.184-16.275 0-4.687.001-8.54 1.112-12.89 1.11-4.348-8.983-26.113-8.086-28.456.896-2.344 1.361-9.379 6.974-9.379 3.743 0 6.284 3.126 7.625 9.379z" fill="#1C3557" fill-rule="nonzero"/><ellipse fill="#E7EAED" fill-rule="nonzero" cx="71" cy="213.5" rx="71" ry="7.5"/><g transform="translate(73.565 21)"><mask id="k" fill="#fff"><use xlink:href="#j"/></mask><use fill="#FFA200" fill-rule="nonzero" xlink:href="#j"/><path d="M16.307 16.458C11.14 16.406 6.977 14.587 3.82 11 2.584 9.675 2.227 7.341 2.746 4l7.16 4.996 6.4 7.462z" fill="#ED8813" fill-rule="nonzero" mask="url(#k)"/></g><path d="M89.568 17.054c-.06.849.206 1.428.798 1.737.889.464 1.96-.174 2.363.556.268.487.268.967 0 1.44.422.936.926 1.27 1.513 1 .88-.404 2.354 1.793 1.177 2.692-1.177.899-2.269-.688-2.71.312-.443 1 .287 1.59-1.427 1.295-1.714-.295-2.773-3.397-2.243-3.937.53-.54-2.474.078-2.474-1.362 0-.96.227-2.555.681-4.787l2.322 1.054z" fill="#0142AD" fill-rule="nonzero"/><path d="M104 32.406c.82-.351 1.61-.783 2.372-1.295 1.142-.769 1.655-1.112 1.655-1.558 0-.446.89-.981.89 0 0 .654-.233 1.247-.697 1.78.145.483.648.635 1.507.454 1.29-.272 3.161-1.118 3.161-1.676 0-.558 1.972-1.472 1.7.412-.272 1.883-3.127 4.583-5.671 4.299-1.697-.19-3.188-.093-4.474.289L104 32.406zM83.437 16.696c3.028 1.961 4.974 2.457 5.838 1.486 1.296-1.456 1.16-2.435 1.816-3.096.478-.084.897-.162 1.255-.235l-.582-1.765s-.762-1.824 0-2.355c.762-.53-.517-5.731-4.532-5.731s-6.667 1.086-6.667 5.086c0 2.667.958 4.87 2.872 6.61z" fill="#F66C27" fill-rule="nonzero"/><g transform="translate(99)"><mask id="m" fill="#fff"><use xlink:href="#l"/></mask><use fill="#FFF" fill-rule="nonzero" xlink:href="#l"/><path d="M11.214 29.996l12.043-14.319a1 1 0 0 1 1.753.487L28.466 38 10 36l1.214-6.004z" fill="#B2CCFF" fill-rule="nonzero" mask="url(#m)"/><path d="M1.214 24.996l12.043-14.319a1 1 0 0 1 1.753.487L18.466 33 0 31l1.214-6.004z" fill="#B2CCFF" fill-rule="nonzero" mask="url(#m)"/></g><path d="M101.493 30.84l20.574 1.65a2 2 0 0 0 2.09-1.472l7.891-29.168a1 1 0 0 0-.94-1.26L110.05.04a2 2 0 0 0-1.961 1.404l-8.345 26.807a2 2 0 0 0 1.75 2.588z" stroke="#5E91F5" stroke-width="3"/><path d="M78.822 22c5.683 4.752 9.527 7.776 11.533 9.073 3.008 1.945 12.875 1.488 13.783.83.71.938 1.228 2.303 1.557 4.097-6.332.864-11.564 1.197-15.695 1-6.196-.295-13.435-7.94-13.435-10.93 0-1.994.753-3.35 2.257-4.07z" fill="#FFA200" fill-rule="nonzero"/><path d="M89.603 7.075c-.23 1.714-.992 2.571-2.286 2.571-1.94 0-1.11 3.655-1.851 4.243-.742.588-2.504.778-1.226 2.104 1.278 1.327.902 1.677-.461 2.782-1.363 1.106-.305 2.023-1.167 2.948-.862.926-1.266.412-1.907.874-.642.461 1.097 1.776-.338 3.266-1.434 1.491-2.467.1-4.602 1.23-2.134 1.13-4.2-.348-4.2-2.314 0-1.966.366-1.981 1.144-3.056.778-1.075-1.082-1.087-.653-2.948.287-1.24.92-1.86 1.9-1.86-.49-1.618.113-2.76 1.81-3.427 2.544-1 .535-4.164 1.911-4.164s-.51-2.316 1.09-3.173c.413-.281.946-.281 1.6 0-.31-.792-.198-1.37.338-1.733.804-.546 2.1-.87 2.587-.557.487.314.491-1.053 2.432-.838 1.293.143 2.02.423 2.18.838 1.184.002 2.039.29 2.565.862.79.859 1.18 2.028 1.18 2.352 0 .325.93.37 1.175 1.31.244.94-1.015 1.971-1.015 2.233s-.366-2.173-.798-2.173c-.289 0-.758-.457-1.408-1.37z" fill="#0048BE" fill-rule="nonzero"/><path d="M82.768 105c-.375 2.209-.229 3.313.439 3.313h4.358c.94 0 4.418.63 4.923 0 .504-.63-1.621-1.373-2.708-2.06-.724-.456-1.645-.874-2.762-1.253h-4.25zM55.27 99.504c-1.758 1.547-2.327 2.59-1.706 3.13.932.81 3.03 4.059 3.906 4.82.876.761 2.453.567 4.281.542 1.828-.025-.17-1.309-1.366-1.92-.797-.407-1.457-1.71-1.98-3.907l-.935-1.489-2.2-1.176z" fill="#0F2B50" fill-rule="nonzero"/></g><path d="M1261.46 142.345c.536-.271 1.384-.54 1.881-.898.934-.673 1.078-.663 1.279-1.155.2-.493.975-.714.804.295-.115.673-.31 1.144-.585 1.413-.142.848.218 1.181 1.078 1 1.29-.272 2.544 2.106 0 1.822-1.21-.135-2.317-.125-3.318.031-.191.03-.3-.512-.481-1.17-.199-.727-.796-1.268-.658-1.338z" fill="#F66C27" fill-rule="nonzero"/><g transform="translate(1164 218)" fill-rule="nonzero"><path d="M52 6l35.59 96.88a1.396 1.396 0 0 1-1.311 1.876 2.865 2.865 0 0 1-2.69-1.877L48 6h4zM84 6l35.59 96.88a1.396 1.396 0 0 1-1.311 1.876 2.865 2.865 0 0 1-2.69-1.877L80 6h4z" fill="#3A3A3A"/><path d="M37 6h4L5.41 102.88a2.865 2.865 0 0 1-2.689 1.876 1.396 1.396 0 0 1-1.31-1.877L37 6z" fill="#4A4A4A"/><path fill="#3A3A3A" d="M54 15h32v4H54z"/><path d="M69.279 6h4l-35.59 96.88A2.865 2.865 0 0 1 35 104.755a1.396 1.396 0 0 1-1.31-1.877L69.279 6z" fill="#4A4A4A"/><path fill="#3A3A3A" d="M59 28h32v4H59z"/><path d="M36.5 0H81v9H36.5a4.5 4.5 0 1 1 0-9z" fill="#777478"/><path d="M37 15h30v4H37a2 2 0 1 1 0-4zM32 28h30v4H32a2 2 0 1 1 0-4zM27 41h32v4H27a2 2 0 1 1 0-4zM22 54h30v4H22a2 2 0 1 1 0-4zM17 67h32v4H17a2 2 0 1 1 0-4zM13 80h32v4H13a2 2 0 1 1 0-4z" fill="#4A4A4A"/><path fill="#3A3A3A" d="M64 41h32v4H64zM69 54h32v4H69zM73 67h33v4H73zM77 80h34v4H77z"/><rect fill="#4A4A4A" x="68" width="22" height="9" rx="4.5"/></g><path fill="#E7EAED" fill-rule="nonzero" d="M1428.973 314.866l-79.302 10.171-3.685-3.361 80.32-8.61z"/><path fill="#FFD805" fill-rule="nonzero" opacity=".35" d="M1265.415 15.123l-3.988 8.996L1232 0z"/><path fill="#FFD805" fill-rule="nonzero" d="M1265.3 15.14l6.643-2.362L1232 0z"/><path d="M1267 17c5.564 3.558 9.139 6.335 10.723 8.332 3.51 4.423 5.265 9.527 5.265 15.31" stroke="#D6D9DD" stroke-dasharray="3,2"/></g></svg>